<?xml version="1.0" encoding="UTF-8"?>
<svg width="1391px" height="1391px" viewBox="0 0 1391 1391" version="1.1" xmlns="http://www.w3.org/2000/svg" xmlns:xlink="http://www.w3.org/1999/xlink">
    <title>Untitled</title>
    <g id="Page-1" stroke="none" stroke-width="1" fill="none" fill-rule="evenodd">
        <g id="HemmersGwüsst?">
            <rect id="Rectangle" fill="#191919" x="0" y="0" width="1391" height="1391"></rect>
            <path d="M701.523,426.722 C665.94,426.38 632.302,440.202 606.767,465.524 C581.239,490.84 567.18,524.363 567.18,559.92 C567.18,594.628 580.458,627.487 604.567,652.444 C628.567,677.288 641.783,709.853 641.783,744.141 L641.783,757.297 L641.783,814.422 C641.783,819.945 646.26,824.422 651.783,824.422 L664.539,824.422 C668.871,839.185 682.53,850 698.676,850 C714.822,850 728.481,839.185 732.814,824.422 L748.98,824.422 C754.503,824.422 758.98,819.945 758.98,814.422 L758.98,757.297 L758.98,744.147 C758.98,709.52 771.97,677.186 795.556,653.103 C820.078,628.063 833.583,594.97 833.583,559.918 C833.583,524.538 819.86,491.221 794.943,466.106 C770.041,441.006 736.864,427.02 701.523,426.722 Z M698.676,830 C693.889,830 689.6,827.83 686.74,824.422 L710.612,824.422 C707.752,827.83 703.463,830 698.676,830 Z M738.98,804.422 L724.254,804.422 L673.098,804.422 L661.783,804.422 L661.783,767.297 L738.98,767.297 L738.98,804.422 Z M781.267,639.109 C753.998,666.953 738.98,704.257 738.98,744.148 L738.98,747.298 L661.783,747.298 L661.783,744.142 C661.783,704.642 646.572,667.142 618.951,638.549 C598.463,617.341 587.18,589.416 587.18,559.92 C587.18,529.737 599.138,501.257 620.85,479.726 C642.57,458.188 671.188,446.5 701.355,446.721 C763.237,447.242 813.583,498.022 813.583,559.918 C813.583,589.707 802.106,617.83 781.267,639.109 Z" id="Shape" fill-opacity="0.302845348" fill="#D9D9D9" fill-rule="nonzero"></path>
            <path d="M700.381,403.584 C705.904,403.584 710.381,399.107 710.381,393.584 L710.381,358 C710.381,352.477 705.904,348 700.381,348 C694.858,348 690.381,352.477 690.381,358 L690.381,393.584 C690.381,399.107 694.858,403.584 700.381,403.584 Z" id="Path" fill-opacity="0.302845348" fill="#D9D9D9" fill-rule="nonzero"></path>
            <path d="M556.246,377.896 C558.203,380.589 561.252,382.019 564.345,382.019 C566.383,382.019 568.44,381.398 570.215,380.109 C574.683,376.862 575.673,370.609 572.427,366.141 L565.319,356.358 C562.073,351.89 555.82,350.9 551.351,354.146 C546.883,357.393 545.893,363.646 549.139,368.114 L556.246,377.896 Z" id="Path" fill-opacity="0.302845348" fill="#D9D9D9" fill-rule="nonzero"></path>
            <path d="M595.729,432.239 C597.686,434.932 600.735,436.362 603.828,436.362 C605.866,436.362 607.923,435.741 609.698,434.452 C614.166,431.206 615.156,424.952 611.91,420.484 L592.797,394.176 C589.551,389.708 583.298,388.717 578.829,391.964 C574.361,395.21 573.371,401.464 576.617,405.932 L595.729,432.239 Z" id="Path" fill-opacity="0.302845348" fill="#D9D9D9" fill-rule="nonzero"></path>
            <path d="M508.031,508.15 L541.874,519.146 C542.901,519.479 543.942,519.638 544.966,519.638 C549.181,519.638 553.102,516.951 554.475,512.725 C556.182,507.472 553.307,501.831 548.055,500.124 L514.212,489.128 C508.961,487.423 503.318,490.296 501.611,495.548 C499.904,500.802 502.778,506.443 508.031,508.15 Z" id="Path" fill-opacity="0.302845348" fill="#D9D9D9" fill-rule="nonzero"></path>
            <path d="M555.808,608.51 C554.101,603.257 548.462,600.384 543.207,602.09 L509.364,613.086 C504.112,614.793 501.237,620.434 502.944,625.687 C504.317,629.913 508.237,632.6 512.453,632.6 C513.477,632.6 514.518,632.441 515.545,632.108 L549.388,621.112 C554.64,619.404 557.514,613.763 555.808,608.51 Z" id="Path" fill-opacity="0.302845348" fill="#D9D9D9" fill-rule="nonzero"></path>
            <path d="M897.045,608.984 L863.202,597.987 C857.95,596.282 852.308,599.155 850.601,604.407 C848.894,609.659 851.769,615.301 857.021,617.008 L890.864,628.005 C891.891,628.338 892.932,628.497 893.956,628.497 C898.171,628.497 902.092,625.81 903.465,621.584 C905.172,616.333 902.298,610.691 897.045,608.984 Z" id="Path" fill-opacity="0.302845348" fill="#D9D9D9" fill-rule="nonzero"></path>
            <path d="M942.39,478.367 C940.684,473.115 935.043,470.24 929.789,471.947 L915.111,476.716 C909.859,478.423 906.984,484.064 908.691,489.317 C910.064,493.543 913.984,496.23 918.2,496.23 C919.224,496.23 920.265,496.071 921.292,495.738 L935.97,490.969 C941.222,489.261 944.096,483.62 942.39,478.367 Z" id="Path" fill-opacity="0.302845348" fill="#D9D9D9" fill-rule="nonzero"></path>
            <path d="M858.777,515.536 C859.801,515.536 860.842,515.377 861.869,515.044 L887.863,506.598 C893.115,504.891 895.99,499.25 894.283,493.997 C892.576,488.745 886.936,485.87 881.682,487.577 L855.688,496.023 C850.436,497.73 847.561,503.371 849.268,508.624 C850.642,512.849 854.562,515.536 858.777,515.536 Z" id="Path" fill-opacity="0.302845348" fill="#D9D9D9" fill-rule="nonzero"></path>
            <path d="M791.89,431.916 C793.665,433.206 795.722,433.826 797.76,433.826 C800.852,433.826 803.902,432.396 805.859,429.703 L826.775,400.914 C830.021,396.446 829.03,390.192 824.563,386.946 C820.094,383.7 813.841,384.691 810.595,389.158 L789.679,417.947 C786.431,422.416 787.422,428.669 791.89,431.916 Z" id="Path" fill-opacity="0.302845348" fill="#D9D9D9" fill-rule="nonzero"></path>
            <path d="M759.349,483.549 C748.06,474.789 734.74,468.568 720.828,465.557 C715.433,464.388 710.107,467.817 708.939,473.216 C707.771,478.614 711.2,483.937 716.598,485.105 C727.605,487.487 738.148,492.413 747.089,499.35 C748.912,500.765 751.07,501.45 753.213,501.45 C756.197,501.45 759.15,500.12 761.12,497.58 C764.505,493.217 763.712,486.935 759.349,483.549 Z" id="Path" fill-opacity="0.302845348" fill="#D9D9D9" fill-rule="nonzero"></path>
            <path d="M673.914,467.066 C632.818,478.795 604.117,516.865 604.117,559.645 C604.117,565.168 608.594,569.645 614.117,569.645 C619.64,569.645 624.117,565.168 624.117,559.645 C624.117,525.75 646.852,495.589 679.404,486.299 C684.715,484.783 687.791,479.249 686.276,473.938 C684.758,468.628 679.224,465.55 673.914,467.066 Z" id="Path" fill-opacity="0.302845348" fill="#D9D9D9" fill-rule="nonzero"></path>
            <g id="idea" transform="translate(505.000000, 352.000000)" fill="#FDFBFD" fill-rule="nonzero">
                <path d="M200.523,78.722 C164.94,78.38 131.302,92.202 105.767,117.524 C80.239,142.84 66.18,176.363 66.18,211.92 C66.18,246.628 79.458,279.487 103.567,304.444 C127.567,329.288 140.783,361.853 140.783,396.141 L140.783,409.297 L140.783,466.422 C140.783,471.945 145.26,476.422 150.783,476.422 L163.539,476.422 C167.871,491.185 181.53,502 197.676,502 C213.822,502 227.481,491.185 231.814,476.422 L247.98,476.422 C253.503,476.422 257.98,471.945 257.98,466.422 L257.98,409.297 L257.98,396.147 C257.98,361.52 270.97,329.186 294.556,305.103 C319.078,280.063 332.583,246.97 332.583,211.918 C332.583,176.538 318.86,143.221 293.943,118.106 C269.041,93.006 235.864,79.02 200.523,78.722 Z M197.676,482 C192.889,482 188.6,479.83 185.74,476.422 L209.612,476.422 C206.752,479.83 202.463,482 197.676,482 Z M237.98,456.422 L223.254,456.422 L172.098,456.422 L160.783,456.422 L160.783,419.297 L237.98,419.297 L237.98,456.422 Z M280.267,291.109 C252.998,318.953 237.98,356.257 237.98,396.148 L237.98,399.298 L160.783,399.298 L160.783,396.142 C160.783,356.642 145.572,319.142 117.951,290.549 C97.463,269.341 86.18,241.416 86.18,211.92 C86.18,181.737 98.138,153.257 119.85,131.726 C141.57,110.188 170.188,98.5 200.355,98.721 C262.237,99.242 312.583,150.022 312.583,211.918 C312.583,241.707 301.106,269.83 280.267,291.109 Z" id="Shape"></path>
                <path d="M199.381,55.584 C204.904,55.584 209.381,51.107 209.381,45.584 L209.381,10 C209.381,4.477 204.904,0 199.381,0 C193.858,0 189.381,4.477 189.381,10 L189.381,45.584 C189.381,51.107 193.858,55.584 199.381,55.584 Z" id="Path"></path>
                <path d="M55.246,29.896 C57.203,32.589 60.252,34.019 63.345,34.019 C65.383,34.019 67.44,33.398 69.215,32.109 C73.683,28.862 74.673,22.609 71.427,18.141 L64.319,8.358 C61.073,3.89 54.82,2.9 50.351,6.146 C45.883,9.393 44.893,15.646 48.139,20.114 L55.246,29.896 Z" id="Path"></path>
                <path d="M94.729,84.239 C96.686,86.932 99.735,88.362 102.828,88.362 C104.866,88.362 106.923,87.741 108.698,86.452 C113.166,83.206 114.156,76.952 110.91,72.484 L91.797,46.176 C88.551,41.708 82.298,40.717 77.829,43.964 C73.361,47.21 72.371,53.464 75.617,57.932 L94.729,84.239 Z" id="Path"></path>
                <path d="M7.031,160.15 L40.874,171.146 C41.901,171.479 42.942,171.638 43.966,171.638 C48.181,171.638 52.102,168.951 53.475,164.725 C55.182,159.472 52.307,153.831 47.055,152.124 L13.212,141.128 C7.961,139.423 2.318,142.296 0.611,147.548 C-1.096,152.802 1.778,158.443 7.031,160.15 Z" id="Path"></path>
                <path d="M54.808,260.51 C53.101,255.257 47.462,252.384 42.207,254.09 L8.364,265.086 C3.112,266.793 0.237,272.434 1.944,277.687 C3.317,281.913 7.237,284.6 11.453,284.6 C12.477,284.6 13.518,284.441 14.545,284.108 L48.388,273.112 C53.64,271.404 56.514,265.763 54.808,260.51 Z" id="Path"></path>
                <path d="M396.045,260.984 L362.202,249.987 C356.95,248.282 351.308,251.155 349.601,256.407 C347.894,261.659 350.769,267.301 356.021,269.008 L389.864,280.005 C390.891,280.338 391.932,280.497 392.956,280.497 C397.171,280.497 401.092,277.81 402.465,273.584 C404.172,268.333 401.298,262.691 396.045,260.984 Z" id="Path"></path>
                <path d="M441.39,130.367 C439.684,125.115 434.043,122.24 428.789,123.947 L414.111,128.716 C408.859,130.423 405.984,136.064 407.691,141.317 C409.064,145.543 412.984,148.23 417.2,148.23 C418.224,148.23 419.265,148.071 420.292,147.738 L434.97,142.969 C440.222,141.261 443.096,135.62 441.39,130.367 Z" id="Path"></path>
                <path d="M357.777,167.536 C358.801,167.536 359.842,167.377 360.869,167.044 L386.863,158.598 C392.115,156.891 394.99,151.25 393.283,145.997 C391.576,140.745 385.936,137.87 380.682,139.577 L354.688,148.023 C349.436,149.73 346.561,155.371 348.268,160.624 C349.642,164.849 353.562,167.536 357.777,167.536 Z" id="Path"></path>
                <path d="M290.89,83.916 C292.665,85.206 294.722,85.826 296.76,85.826 C299.852,85.826 302.902,84.396 304.859,81.703 L325.775,52.914 C329.021,48.446 328.03,42.192 323.563,38.946 C319.094,35.7 312.841,36.691 309.595,41.158 L288.679,69.947 C285.431,74.416 286.422,80.669 290.89,83.916 Z" id="Path"></path>
                <path d="M258.349,135.549 C247.06,126.789 233.74,120.568 219.828,117.557 C214.433,116.388 209.107,119.817 207.939,125.216 C206.771,130.614 210.2,135.937 215.598,137.105 C226.605,139.487 237.148,144.413 246.089,151.35 C247.912,152.765 250.07,153.45 252.213,153.45 C255.197,153.45 258.15,152.12 260.12,149.58 C263.505,145.217 262.712,138.935 258.349,135.549 Z" id="Path"></path>
                <path d="M172.914,119.066 C131.818,130.795 103.117,168.865 103.117,211.645 C103.117,217.168 107.594,221.645 113.117,221.645 C118.64,221.645 123.117,217.168 123.117,211.645 C123.117,177.75 145.852,147.589 178.404,138.299 C183.715,136.783 186.791,131.249 185.276,125.938 C183.758,120.628 178.224,117.55 172.914,119.066 Z" id="Path"></path>
            </g>
            <g id="Group-2" transform="translate(386.000000, 924.000000)" font-family="PermanentMarker-Regular, Permanent Marker" font-size="72" font-weight="normal">
                <text id="HemmersGwüsst?" fill="#535353">
                    <tspan x="0" y="80">HemmersGwüsst?</tspan>
                </text>
                <text id="HemmersGwüsst?" fill="#FDFBFD">
                    <tspan x="5" y="83">HemmersGwüsst?</tspan>
                </text>
            </g>
            <g id="idea" transform="translate(501.000000, 348.000000)"></g>
            <g id="Group-3" transform="translate(598.000000, 1011.000000)" font-family="PermanentMarker-Regular, Permanent Marker" font-size="21" font-weight="normal">
                <text id="Damola-&amp;-Timon" fill="#535353">
                    <tspan x="0" y="23">Damola &amp; Timon</tspan>
                </text>
                <text id="Damola-&amp;-Timon" fill="#FDFBFD">
                    <tspan x="1" y="26">Damola &amp; Timon</tspan>
                </text>
            </g>
        </g>
    </g>
</svg>