<?xml version="1.0" encoding="UTF-8"?>
<svg width="1294px" height="1280px" viewBox="0 0 1294 1280" version="1.1" xmlns="http://www.w3.org/2000/svg" xmlns:xlink="http://www.w3.org/1999/xlink">
    <title>Untitled</title>
    <g id="Page-1" stroke="none" stroke-width="1" fill="none" fill-rule="evenodd">
        <g id="idea" transform="translate(646.535996, 639.662763) rotate(-20.000000) translate(-646.535996, -639.662763) translate(139.035996, 143.662763)" fill="#FDFBFD" fill-rule="nonzero">
            <path d="M460.622335,155.012256 C378.878526,154.335987 301.60291,181.667539 242.942084,231.739132 C184.297339,281.79886 152,348.087068 152,418.397297 C152,487.028718 182.50317,552.003936 237.888087,601.35378 C293.022601,650.480178 323.38334,714.874042 323.38334,782.674957 L323.38334,808.689564 L323.38334,921.648245 C323.38334,932.569397 333.668224,941.422194 346.356055,941.422194 L375.660049,941.422194 C385.611829,970.614475 416.990259,992 454.082004,992 C491.173748,992 522.552178,970.614475 532.506256,941.422194 L569.643945,941.422194 C582.331776,941.422194 592.61666,932.569397 592.61666,921.648245 L592.61666,808.689564 L592.61666,782.686821 C592.61666,714.215569 622.458216,650.278484 676.641659,602.656883 C732.975349,553.142916 764,487.704987 764,418.393343 C764,348.433112 732.474544,282.552247 675.233432,232.889975 C618.026779,183.257364 541.810205,155.60152 460.622335,155.012256 Z M454.082004,952.452103 C443.084965,952.452103 433.231968,948.161156 426.661772,941.422194 L481.502235,941.422194 C474.932039,948.161156 465.079042,952.452103 454.082004,952.452103 Z M546.671231,901.874297 L512.841612,901.874297 L395.322395,901.874297 L369.328769,901.874297 L369.328769,828.463512 L546.671231,828.463512 L546.671231,901.874297 Z M643.815948,574.985219 C581.171653,630.043802 546.671231,703.80854 546.671231,782.688799 L546.671231,788.917593 L369.328769,788.917593 L369.328769,782.676934 C369.328769,704.569837 334.384973,630.41753 270.932039,573.877878 C223.865542,531.941288 197.945429,476.722536 197.945429,418.397297 C197.945429,358.713588 225.4162,302.397382 275.294557,259.822093 C325.191293,217.232963 390.934607,194.121172 460.236394,194.558176 C602.396144,195.588399 718.054571,296.00051 718.054571,418.393343 C718.054571,477.297958 691.688787,532.908234 643.815948,574.985219 Z" id="Shape"></path>
            <path d="M457.5,110 C469.92675,110 480,101.140076 480,90.2101324 L480,19.7898676 C480,8.85992372 469.92675,0 457.5,0 C445.07325,0 435,8.85992372 435,19.7898676 L435,90.2101324 C435,101.140076 445.07325,110 457.5,110 Z" id="Path"></path>
            <path d="M127.623609,58.8324967 C132.099385,64.1672254 139.072631,67 146.146507,67 C150.807536,67 155.512018,65.7698231 159.571549,63.216364 C169.790133,56.7841828 172.054322,44.397232 164.630526,35.5462971 L148.374104,16.166553 C140.950307,7.3156181 126.649322,5.35446645 116.428451,11.7846667 C106.209867,18.2168479 103.945678,30.6037987 111.369474,39.4547336 L127.623609,58.8324967 Z" id="Path"></path>
            <path d="M217.834595,165.809014 C222.287549,171.159081 229.225237,174 236.263042,174 C240.900302,174 245.580796,172.766286 249.619627,170.205485 C259.786104,163.756797 262.038748,151.332245 254.652806,142.455862 L211.163129,90.1908934 C203.777188,81.3145105 189.549126,79.3457336 179.380373,85.7964084 C169.213896,92.2450966 166.961252,104.669649 174.347194,113.546032 L217.834595,165.809014 Z" id="Path"></path>
            <path d="M127.623609,58.8324967 C132.099385,64.1672254 139.072631,67 146.146507,67 C150.807536,67 155.512018,65.7698231 159.571549,63.216364 C169.790133,56.7841828 172.054322,44.397232 164.630526,35.5462971 L148.374104,16.166553 C140.950307,7.3156181 126.649322,5.35446645 116.428451,11.7846667 C106.209867,18.2168479 103.945678,30.6037987 111.369474,39.4547336 L127.623609,58.8324967 Z" id="Path"></path>
            <path d="M217.834595,165.809014 C222.287549,171.159081 229.225237,174 236.263042,174 C240.900302,174 245.580796,172.766286 249.619627,170.205485 C259.786104,163.756797 262.038748,151.332245 254.652806,142.455862 L211.163129,90.1908934 C203.777188,81.3145105 189.549126,79.3457336 179.380373,85.7964084 C169.213896,92.2450966 166.961252,104.669649 174.347194,113.546032 L217.834595,165.809014 Z" id="Path"></path>
            <path d="M15.7890595,316.025109 L93.0926235,338.016048 C95.4384782,338.682015 97.8163115,339 100.155314,339 C109.78314,339 118.739417,333.626259 121.875598,325.174668 C125.774696,314.669175 119.207674,303.38772 107.211151,299.973884 L29.9075871,277.982946 C17.9133486,274.573111 5.02371081,280.318833 1.12461251,290.822326 C-2.77448579,301.329819 3.79025265,312.611274 15.7890595,316.025109 Z" id="Path"></path>
            <path d="M125.876455,514.823059 C121.977323,504.317726 109.096709,498.572091 97.0932285,501.983875 L19.7889872,523.974478 C7.79235938,527.388261 1.22527923,538.669545 5.12441169,549.174878 C8.26062075,557.626341 17.2146918,563 26.8448865,563 C29.1839092,563 31.5617632,562.68202 33.9076385,562.016062 L111.21188,540.025459 C123.208508,536.609676 129.773304,525.328392 125.876455,514.823059 Z" id="Path"></path>
            <path d="M910.21094,514.975884 L832.907376,492.982946 C820.910854,489.573111 808.0235,495.318833 804.124402,505.822326 C800.225304,516.325819 806.792326,527.609274 818.788849,531.023109 L896.092413,553.016048 C898.438268,553.682015 900.816101,554 903.155103,554 C912.782929,554 921.739206,548.626259 924.875387,540.174668 C928.774486,529.673175 922.209747,518.389719 910.21094,514.975884 Z" id="Path"></path>
            <path d="M1013.86544,257.67092 C1009.93039,247.28362 996.918873,241.597504 984.800014,244.973574 L950.943787,254.405605 C938.829541,257.781676 932.198075,268.938331 936.135436,279.327608 C939.302393,287.685706 948.344252,293 958.068864,293 C960.430819,293 962.831987,292.685533 965.200861,292.026932 L999.057089,282.594901 C1011.17133,279.216853 1017.80049,268.060197 1013.86544,257.67092 Z" id="Path"></path>
            <path d="M821.046617,331 C823.406294,331 825.805146,330.687044 828.171736,330.031607 L888.071589,313.407525 C900.174152,310.047674 906.799223,298.944614 902.865659,288.605246 C898.932096,278.267846 885.935436,272.609045 873.828264,275.968897 L813.928411,292.592978 C801.825848,295.95283 795.200777,307.05589 799.134341,317.395258 C802.300548,325.711235 811.333688,331 821.046617,331 Z" id="Path"></path>
            <path d="M667.571828,165.241871 C671.692878,167.780084 676.468653,169 681.200315,169 C688.379068,169 695.460309,166.186322 700.003911,160.887557 L748.564972,104.242124 C756.10127,95.4508563 753.800447,83.1454432 743.429331,76.7585914 C733.053572,70.3717396 718.535867,72.3216379 710.99957,81.1109377 L662.438509,137.756371 C654.897567,146.549606 657.19839,158.853052 667.571828,165.241871 Z" id="Path"></path>
            <path d="M593.124765,267.814121 C567.236592,250.595625 536.690888,238.367741 504.787597,232.449375 C492.415669,230.15161 480.201974,236.89159 477.523492,247.503765 C474.84501,258.113976 482.708465,268.576767 495.087272,270.872567 C520.328756,275.554582 544.506185,285.237038 565.009875,298.872278 C569.190417,301.653577 574.139188,303 579.05356,303 C585.896532,303 592.668414,300.385776 597.186059,295.393199 C604.948612,286.817366 603.130088,274.469581 593.124765,267.814121 Z" id="Path"></path>
            <path d="M396.810883,235.762103 C302.71532,258.886216 237,333.942482 237,418.284669 C237,429.173446 247.250775,438 259.896526,438 C272.542277,438 282.793052,429.173446 282.793052,418.284669 C282.793052,351.459553 334.848304,291.996143 409.381076,273.6806 C421.541421,270.691756 428.584392,259.781292 425.115569,249.310479 C421.639876,238.841638 408.968938,232.773259 396.810883,235.762103 Z" id="Path"></path>
        </g>
    </g>
</svg>